<mxfile host="app.diagrams.net" modified="2024-06-13T22:49:04.908Z" agent="Mozilla/5.0 (Windows NT 10.0; Win64; x64) AppleWebKit/537.36 (KHTML, like Gecko) Chrome/125.0.0.0 Safari/537.36" etag="esCXoFUHXOvDzRbMcLJD" version="24.5.4" type="onedrive" pages="2">
  <diagram name="Page-1" id="mtWkFPqACjwNxAlCZ6wP">
    <mxGraphModel grid="1" page="1" gridSize="10" guides="1" tooltips="1" connect="1" arrows="1" fold="1" pageScale="1" pageWidth="850" pageHeight="1100" math="0" shadow="0">
      <root>
        <mxCell id="0" />
        <mxCell id="1" parent="0" />
        <mxCell id="eS-itWfHmsZJVuyacLIp-1" value="" style="rounded=0;whiteSpace=wrap;html=1;" vertex="1" parent="1">
          <mxGeometry x="250" y="100" width="370" height="320" as="geometry" />
        </mxCell>
        <mxCell id="PsPgbDnQa2C0myFI8k_I-1" value="&lt;font style=&quot;font-size: 36px;&quot;&gt;The Big Quiz&lt;/font&gt;" style="text;html=1;align=center;verticalAlign=middle;whiteSpace=wrap;rounded=0;" vertex="1" parent="1">
          <mxGeometry x="295" y="130" width="280" height="40" as="geometry" />
        </mxCell>
        <mxCell id="PsPgbDnQa2C0myFI8k_I-2" value="" style="rounded=1;whiteSpace=wrap;html=1;" vertex="1" parent="1">
          <mxGeometry x="270" y="250" width="150" height="40" as="geometry" />
        </mxCell>
        <mxCell id="PsPgbDnQa2C0myFI8k_I-3" value="" style="rounded=1;whiteSpace=wrap;html=1;" vertex="1" parent="1">
          <mxGeometry x="450" y="250" width="150" height="40" as="geometry" />
        </mxCell>
        <mxCell id="PsPgbDnQa2C0myFI8k_I-23" style="edgeStyle=orthogonalEdgeStyle;rounded=0;orthogonalLoop=1;jettySize=auto;html=1;exitX=1;exitY=0.5;exitDx=0;exitDy=0;entryX=1;entryY=0.75;entryDx=0;entryDy=0;" edge="1" parent="1" source="PsPgbDnQa2C0myFI8k_I-4" target="PsPgbDnQa2C0myFI8k_I-9">
          <mxGeometry relative="1" as="geometry">
            <Array as="points">
              <mxPoint x="690" y="350" />
              <mxPoint x="690" y="700" />
            </Array>
          </mxGeometry>
        </mxCell>
        <mxCell id="PsPgbDnQa2C0myFI8k_I-4" value="&lt;font style=&quot;font-size: 18px;&quot;&gt;Play&lt;/font&gt;" style="rounded=1;whiteSpace=wrap;html=1;" vertex="1" parent="1">
          <mxGeometry x="270" y="330" width="330" height="40" as="geometry" />
        </mxCell>
        <mxCell id="PsPgbDnQa2C0myFI8k_I-5" value="&lt;font style=&quot;font-size: 18px;&quot;&gt;Information&lt;/font&gt;" style="text;html=1;align=center;verticalAlign=middle;whiteSpace=wrap;rounded=0;" vertex="1" parent="1">
          <mxGeometry x="315" y="255" width="60" height="30" as="geometry" />
        </mxCell>
        <mxCell id="PsPgbDnQa2C0myFI8k_I-6" value="&lt;font style=&quot;font-size: 18px;&quot;&gt;Help&lt;/font&gt;" style="text;html=1;align=center;verticalAlign=middle;whiteSpace=wrap;rounded=0;" vertex="1" parent="1">
          <mxGeometry x="495" y="255" width="60" height="30" as="geometry" />
        </mxCell>
        <mxCell id="PsPgbDnQa2C0myFI8k_I-8" value="A Quiz by Vegas Hart" style="text;html=1;align=center;verticalAlign=middle;whiteSpace=wrap;rounded=0;" vertex="1" parent="1">
          <mxGeometry x="357.5" y="190" width="155" height="30" as="geometry" />
        </mxCell>
        <mxCell id="PsPgbDnQa2C0myFI8k_I-9" value="" style="rounded=0;whiteSpace=wrap;html=1;" vertex="1" parent="1">
          <mxGeometry x="250" y="460" width="370" height="320" as="geometry" />
        </mxCell>
        <mxCell id="PsPgbDnQa2C0myFI8k_I-10" value="Select a Section Below&lt;div&gt;Or Type a Number of Random Questions To Do&lt;/div&gt;" style="text;html=1;align=center;verticalAlign=middle;whiteSpace=wrap;rounded=0;" vertex="1" parent="1">
          <mxGeometry x="294" y="500" width="262" height="30" as="geometry" />
        </mxCell>
        <mxCell id="PsPgbDnQa2C0myFI8k_I-12" value="&lt;font style=&quot;font-size: 18px;&quot;&gt;General&lt;/font&gt;" style="rounded=1;whiteSpace=wrap;html=1;" vertex="1" parent="1">
          <mxGeometry x="270" y="660" width="150" height="40" as="geometry" />
        </mxCell>
        <mxCell id="PsPgbDnQa2C0myFI8k_I-13" value="&lt;font style=&quot;font-size: 18px;&quot;&gt;TV / Movie&lt;/font&gt;" style="rounded=1;whiteSpace=wrap;html=1;" vertex="1" parent="1">
          <mxGeometry x="440" y="660" width="150" height="40" as="geometry" />
        </mxCell>
        <mxCell id="PsPgbDnQa2C0myFI8k_I-14" value="&lt;font style=&quot;font-size: 18px;&quot;&gt;Horror&lt;/font&gt;" style="rounded=1;whiteSpace=wrap;html=1;" vertex="1" parent="1">
          <mxGeometry x="270" y="720" width="150" height="40" as="geometry" />
        </mxCell>
        <mxCell id="PsPgbDnQa2C0myFI8k_I-15" value="&lt;font style=&quot;font-size: 18px;&quot;&gt;Video Games&lt;/font&gt;" style="rounded=1;whiteSpace=wrap;html=1;" vertex="1" parent="1">
          <mxGeometry x="440" y="720" width="150" height="40" as="geometry" />
        </mxCell>
        <mxCell id="PsPgbDnQa2C0myFI8k_I-16" value="Insert Number Here" style="rounded=0;whiteSpace=wrap;html=1;" vertex="1" parent="1">
          <mxGeometry x="270" y="600" width="320" height="40" as="geometry" />
        </mxCell>
        <mxCell id="PsPgbDnQa2C0myFI8k_I-17" value="How Many Questions Would You Like?" style="text;html=1;align=center;verticalAlign=middle;whiteSpace=wrap;rounded=0;" vertex="1" parent="1">
          <mxGeometry x="300" y="550" width="260" height="30" as="geometry" />
        </mxCell>
      </root>
    </mxGraphModel>
  </diagram>
  <diagram id="4kwUNbQ6xPD1Y891PnkI" name="Page-2">
    <mxGraphModel grid="1" page="1" gridSize="10" guides="1" tooltips="1" connect="1" arrows="1" fold="1" pageScale="1" pageWidth="850" pageHeight="1100" math="0" shadow="0">
      <root>
        <mxCell id="0" />
        <mxCell id="1" parent="0" />
        <mxCell id="BW0Ydy7vQo9uCpVgLH-R-4" style="edgeStyle=orthogonalEdgeStyle;rounded=0;orthogonalLoop=1;jettySize=auto;html=1;exitX=1;exitY=0.5;exitDx=0;exitDy=0;entryX=0;entryY=0.5;entryDx=0;entryDy=0;" edge="1" parent="1" source="EtsX0bY_UHscHtbJWopH-1" target="BW0Ydy7vQo9uCpVgLH-R-3">
          <mxGeometry relative="1" as="geometry" />
        </mxCell>
        <mxCell id="EtsX0bY_UHscHtbJWopH-1" value="" style="swimlane;startSize=0;gradientColor=none;fillStyle=solid;fillColor=#FFFFFF;" vertex="1" parent="1">
          <mxGeometry x="110" y="110" width="210" height="200" as="geometry" />
        </mxCell>
        <mxCell id="BW0Ydy7vQo9uCpVgLH-R-2" value="" style="rounded=0;whiteSpace=wrap;html=1;" vertex="1" parent="EtsX0bY_UHscHtbJWopH-1">
          <mxGeometry width="210" height="200" as="geometry" />
        </mxCell>
        <mxCell id="Zg0lf5oOnMOqhEUKy_i4-2" value="Answer 1" style="rounded=1;whiteSpace=wrap;html=1;" vertex="1" parent="EtsX0bY_UHscHtbJWopH-1">
          <mxGeometry x="10" y="80" width="90" height="30" as="geometry" />
        </mxCell>
        <mxCell id="Zg0lf5oOnMOqhEUKy_i4-3" value="Answer 2" style="rounded=1;whiteSpace=wrap;html=1;" vertex="1" parent="EtsX0bY_UHscHtbJWopH-1">
          <mxGeometry x="110" y="80" width="90" height="30" as="geometry" />
        </mxCell>
        <mxCell id="Zg0lf5oOnMOqhEUKy_i4-4" value="Answer 3" style="rounded=1;whiteSpace=wrap;html=1;" vertex="1" parent="EtsX0bY_UHscHtbJWopH-1">
          <mxGeometry x="10" y="120" width="90" height="30" as="geometry" />
        </mxCell>
        <mxCell id="Zg0lf5oOnMOqhEUKy_i4-5" value="Answer 4" style="rounded=1;whiteSpace=wrap;html=1;" vertex="1" parent="EtsX0bY_UHscHtbJWopH-1">
          <mxGeometry x="110" y="120" width="90" height="30" as="geometry" />
        </mxCell>
        <mxCell id="Zg0lf5oOnMOqhEUKy_i4-6" value="Question?" style="text;html=1;align=center;verticalAlign=middle;whiteSpace=wrap;rounded=0;" vertex="1" parent="EtsX0bY_UHscHtbJWopH-1">
          <mxGeometry x="20" y="40" width="170" height="30" as="geometry" />
        </mxCell>
        <mxCell id="BW0Ydy7vQo9uCpVgLH-R-6" style="edgeStyle=orthogonalEdgeStyle;rounded=0;orthogonalLoop=1;jettySize=auto;html=1;exitX=0.5;exitY=1;exitDx=0;exitDy=0;" edge="1" parent="EtsX0bY_UHscHtbJWopH-1" source="Zg0lf5oOnMOqhEUKy_i4-7">
          <mxGeometry relative="1" as="geometry">
            <mxPoint x="250" y="350" as="targetPoint" />
          </mxGeometry>
        </mxCell>
        <mxCell id="Zg0lf5oOnMOqhEUKy_i4-7" value="History" style="rounded=1;whiteSpace=wrap;html=1;" vertex="1" parent="EtsX0bY_UHscHtbJWopH-1">
          <mxGeometry x="10" y="160" width="190" height="30" as="geometry" />
        </mxCell>
        <mxCell id="Zg0lf5oOnMOqhEUKy_i4-14" value="Question 0 / 10" style="text;html=1;align=center;verticalAlign=middle;whiteSpace=wrap;rounded=0;" vertex="1" parent="EtsX0bY_UHscHtbJWopH-1">
          <mxGeometry x="20" y="10" width="170" height="30" as="geometry" />
        </mxCell>
        <mxCell id="Zg0lf5oOnMOqhEUKy_i4-8" value="" style="swimlane;startSize=0;" vertex="1" parent="1">
          <mxGeometry x="410" y="110" width="200" height="200" as="geometry" />
        </mxCell>
        <mxCell id="BW0Ydy7vQo9uCpVgLH-R-3" value="" style="rounded=0;whiteSpace=wrap;html=1;" vertex="1" parent="Zg0lf5oOnMOqhEUKy_i4-8">
          <mxGeometry width="200" height="200" as="geometry" />
        </mxCell>
        <mxCell id="BW0Ydy7vQo9uCpVgLH-R-7" style="edgeStyle=orthogonalEdgeStyle;rounded=0;orthogonalLoop=1;jettySize=auto;html=1;exitX=0.5;exitY=1;exitDx=0;exitDy=0;" edge="1" parent="Zg0lf5oOnMOqhEUKy_i4-8" source="Zg0lf5oOnMOqhEUKy_i4-10">
          <mxGeometry relative="1" as="geometry">
            <mxPoint x="-50" y="350" as="targetPoint" />
          </mxGeometry>
        </mxCell>
        <mxCell id="Zg0lf5oOnMOqhEUKy_i4-10" value="History" style="rounded=1;whiteSpace=wrap;html=1;" vertex="1" parent="Zg0lf5oOnMOqhEUKy_i4-8">
          <mxGeometry x="5" y="160" width="190" height="30" as="geometry" />
        </mxCell>
        <mxCell id="Zg0lf5oOnMOqhEUKy_i4-11" value="Finish Now" style="rounded=1;whiteSpace=wrap;html=1;" vertex="1" parent="Zg0lf5oOnMOqhEUKy_i4-8">
          <mxGeometry x="5" y="120" width="190" height="30" as="geometry" />
        </mxCell>
        <mxCell id="Zg0lf5oOnMOqhEUKy_i4-12" value="CORRECT!!!&lt;br&gt;WRONG!!!" style="text;html=1;align=center;verticalAlign=middle;whiteSpace=wrap;rounded=0;" vertex="1" parent="Zg0lf5oOnMOqhEUKy_i4-8">
          <mxGeometry x="20" y="40" width="160" height="30" as="geometry" />
        </mxCell>
        <mxCell id="Zg0lf5oOnMOqhEUKy_i4-13" value="Next Question" style="rounded=1;whiteSpace=wrap;html=1;" vertex="1" parent="Zg0lf5oOnMOqhEUKy_i4-8">
          <mxGeometry x="5" y="80" width="190" height="30" as="geometry" />
        </mxCell>
        <mxCell id="BW0Ydy7vQo9uCpVgLH-R-5" style="edgeStyle=orthogonalEdgeStyle;rounded=0;orthogonalLoop=1;jettySize=auto;html=1;exitX=1;exitY=0.5;exitDx=0;exitDy=0;entryX=0.5;entryY=0;entryDx=0;entryDy=0;" edge="1" parent="1" source="Zg0lf5oOnMOqhEUKy_i4-13" target="BW0Ydy7vQo9uCpVgLH-R-2">
          <mxGeometry relative="1" as="geometry">
            <Array as="points">
              <mxPoint x="625" y="205" />
              <mxPoint x="625" y="90" />
              <mxPoint x="215" y="90" />
            </Array>
          </mxGeometry>
        </mxCell>
        <mxCell id="BW0Ydy7vQo9uCpVgLH-R-9" value="" style="swimlane;startSize=0;" vertex="1" parent="1">
          <mxGeometry x="260" y="460" width="200" height="200" as="geometry" />
        </mxCell>
        <mxCell id="BW0Ydy7vQo9uCpVgLH-R-10" value="" style="rounded=0;whiteSpace=wrap;html=1;" vertex="1" parent="1">
          <mxGeometry x="260" y="460" width="200" height="200" as="geometry" />
        </mxCell>
        <mxCell id="BW0Ydy7vQo9uCpVgLH-R-14" style="edgeStyle=orthogonalEdgeStyle;rounded=0;orthogonalLoop=1;jettySize=auto;html=1;exitX=1;exitY=0.5;exitDx=0;exitDy=0;entryX=0.75;entryY=1;entryDx=0;entryDy=0;" edge="1" parent="1" source="BW0Ydy7vQo9uCpVgLH-R-12" target="Zg0lf5oOnMOqhEUKy_i4-8">
          <mxGeometry relative="1" as="geometry" />
        </mxCell>
        <mxCell id="BW0Ydy7vQo9uCpVgLH-R-15" style="edgeStyle=orthogonalEdgeStyle;rounded=0;orthogonalLoop=1;jettySize=auto;html=1;exitX=0;exitY=0.5;exitDx=0;exitDy=0;entryX=0.25;entryY=1;entryDx=0;entryDy=0;" edge="1" parent="1" source="BW0Ydy7vQo9uCpVgLH-R-12" target="EtsX0bY_UHscHtbJWopH-1">
          <mxGeometry relative="1" as="geometry" />
        </mxCell>
        <mxCell id="BW0Ydy7vQo9uCpVgLH-R-12" value="Close" style="rounded=1;whiteSpace=wrap;html=1;" vertex="1" parent="1">
          <mxGeometry x="300" y="620" width="120" height="30" as="geometry" />
        </mxCell>
        <mxCell id="BW0Ydy7vQo9uCpVgLH-R-13" value="&lt;h1 style=&quot;text-align: center; margin-top: 0px;&quot;&gt;History&lt;/h1&gt;&lt;p&gt;Question 1: Correct (most recent 5 questions formatted like this)&lt;/p&gt;&lt;p&gt;Total Correct: ??&lt;br&gt;Total Wrong: ??&lt;br&gt;Overall:??/??&lt;/p&gt;" style="text;html=1;whiteSpace=wrap;overflow=hidden;rounded=0;" vertex="1" parent="1">
          <mxGeometry x="270" y="470" width="180" height="140" as="geometry" />
        </mxCell>
        <mxCell id="BW0Ydy7vQo9uCpVgLH-R-17" value="" style="swimlane;startSize=0;" vertex="1" parent="1">
          <mxGeometry x="600" y="460" width="240" height="200" as="geometry" />
        </mxCell>
        <mxCell id="BW0Ydy7vQo9uCpVgLH-R-18" value="" style="rounded=0;whiteSpace=wrap;html=1;" vertex="1" parent="BW0Ydy7vQo9uCpVgLH-R-17">
          <mxGeometry width="240" height="200" as="geometry" />
        </mxCell>
        <mxCell id="BW0Ydy7vQo9uCpVgLH-R-20" value="&lt;h1 style=&quot;text-align: center; margin-top: 0px;&quot;&gt;Overall&lt;/h1&gt;&lt;p&gt;You answered a total of ??/?? questions.&lt;br&gt;&lt;br&gt;You&#39;re overall score was ??/?? correct!&lt;/p&gt;&lt;p&gt;Would you like to save your results?&lt;/p&gt;" style="text;html=1;whiteSpace=wrap;overflow=hidden;rounded=0;" vertex="1" parent="BW0Ydy7vQo9uCpVgLH-R-17">
          <mxGeometry x="10" width="220" height="130" as="geometry" />
        </mxCell>
        <mxCell id="BW0Ydy7vQo9uCpVgLH-R-21" value="Save results" style="rounded=1;whiteSpace=wrap;html=1;" vertex="1" parent="BW0Ydy7vQo9uCpVgLH-R-17">
          <mxGeometry x="10" y="150" width="100" height="30" as="geometry" />
        </mxCell>
        <mxCell id="BW0Ydy7vQo9uCpVgLH-R-22" value="Close" style="rounded=1;whiteSpace=wrap;html=1;" vertex="1" parent="BW0Ydy7vQo9uCpVgLH-R-17">
          <mxGeometry x="130" y="150" width="100" height="30" as="geometry" />
        </mxCell>
        <mxCell id="BW0Ydy7vQo9uCpVgLH-R-16" style="edgeStyle=orthogonalEdgeStyle;rounded=0;orthogonalLoop=1;jettySize=auto;html=1;exitX=1;exitY=0.5;exitDx=0;exitDy=0;" edge="1" parent="1" source="Zg0lf5oOnMOqhEUKy_i4-11" target="BW0Ydy7vQo9uCpVgLH-R-17">
          <mxGeometry relative="1" as="geometry">
            <mxPoint x="710" y="460" as="targetPoint" />
          </mxGeometry>
        </mxCell>
      </root>
    </mxGraphModel>
  </diagram>
</mxfile>
